<?xml version="1.0" encoding="utf-8"?>
<!-- Generator: Adobe Illustrator 16.0.0, SVG Export Plug-In . SVG Version: 6.00 Build 0)  -->
<!DOCTYPE svg PUBLIC "-//W3C//DTD SVG 1.1//EN" "http://www.w3.org/Graphics/SVG/1.1/DTD/svg11.dtd">
<svg version="1.1" id="Layer_1" xmlns="http://www.w3.org/2000/svg" xmlns:xlink="http://www.w3.org/1999/xlink" x="0px" y="0px"
	 width="24px" height="20px" viewBox="0 0 24 20" enable-background="new 0 0 24 20" xml:space="preserve">
<title>truck-icon</title>
<desc>Created with Sketch.</desc>
<g>
	<g>
		<path fill="#CF004E" d="M12.039,0.078c-5.449,0-9.883,4.434-9.883,9.883s4.434,9.883,9.883,9.883s9.883-4.434,9.883-9.883
			S17.488,0.078,12.039,0.078z M12.039,17.74c-4.29,0-7.78-3.489-7.78-7.779s3.49-7.78,7.78-7.78s7.78,3.49,7.78,7.78
			S16.329,17.74,12.039,17.74z"/>
		<path fill="#CF004E" d="M17.189,9.655h-4.441V4.316c0-0.45-0.365-0.814-0.814-0.814c-0.45,0-0.814,0.364-0.814,0.814v6.154
			c0,0.448,0.364,0.813,0.814,0.813h5.255c0.449,0,0.813-0.365,0.813-0.813C18.003,10.02,17.639,9.655,17.189,9.655z"/>
	</g>
</g>
</svg>
