<?xml version="1.0" encoding="utf-8"?>
<!-- Generator: Adobe Illustrator 16.0.0, SVG Export Plug-In . SVG Version: 6.00 Build 0)  -->
<!DOCTYPE svg PUBLIC "-//W3C//DTD SVG 1.1//EN" "http://www.w3.org/Graphics/SVG/1.1/DTD/svg11.dtd">
<svg version="1.1" id="Layer_1" xmlns="http://www.w3.org/2000/svg" xmlns:xlink="http://www.w3.org/1999/xlink" x="0px" y="0px"
	 width="24px" height="20px" viewBox="0 0 24 20" enable-background="new 0 0 24 20" xml:space="preserve">
<title>truck-icon</title>
<desc>Created with Sketch.</desc>
<g>
	<g>
		<path fill="#CF004E" d="M21.844,6.283h-2.404V2.889c0-1.088-0.886-1.973-1.974-1.973H2.155c-1.088,0-1.973,0.885-1.973,1.973
			v8.854c0,1.087,0.885,1.973,1.973,1.973H4.56v3.396c0,1.088,0.885,1.973,1.973,1.973h15.311c1.088,0,1.974-0.885,1.974-1.973
			V8.257C23.817,7.17,22.932,6.283,21.844,6.283z M1.309,2.889c0-0.466,0.379-0.846,0.846-0.846h15.311
			c0.466,0,0.846,0.38,0.846,0.846v0.787H1.309V2.889z M4.56,8.257v4.331H2.155c-0.466,0-0.846-0.38-0.846-0.846V7.415h3.44
			C4.628,7.671,4.56,7.956,4.56,8.257z M1.309,6.287V4.804h17.002v1.479H6.533c-0.038,0-0.076,0.002-0.113,0.004H1.309z
			 M21.844,17.957H6.533c-0.466,0-0.846-0.38-0.846-0.846V8.257c0-0.442,0.343-0.807,0.777-0.842h12.411
			c0.021,0,0.041-0.001,0.062-0.003h2.907c0.466,0,0.846,0.379,0.846,0.845v8.854l0,0C22.689,17.577,22.31,17.957,21.844,17.957z"/>
	</g>
</g>
<g>
	<g>
		<path fill="#CF004E" d="M15.705,9.051c-0.642,0-1.23,0.223-1.696,0.597c-0.478-0.385-1.071-0.598-1.7-0.598
			c-1.499,0-2.718,1.22-2.718,2.719c0,1.497,1.219,2.718,2.718,2.718c0.628,0,1.222-0.213,1.7-0.598
			c0.466,0.374,1.055,0.598,1.696,0.598c1.499,0,2.718-1.221,2.718-2.718C18.423,10.27,17.204,9.051,15.705,9.051z M13.293,13.017
			c-0.277,0.22-0.621,0.341-0.984,0.341c-0.877,0-1.59-0.712-1.59-1.589s0.713-1.591,1.59-1.591c0.363,0,0.707,0.121,0.984,0.341
			c-0.194,0.375-0.306,0.8-0.306,1.25S13.099,12.643,13.293,13.017z M15.705,13.357c-0.876,0-1.59-0.712-1.59-1.589
			s0.714-1.59,1.59-1.59c0.877,0,1.591,0.713,1.591,1.59S16.582,13.357,15.705,13.357z"/>
	</g>
</g>
</svg>
