<?xml version="1.0" encoding="utf-8"?>
<!-- Generator: Adobe Illustrator 16.0.0, SVG Export Plug-In . SVG Version: 6.00 Build 0)  -->
<!DOCTYPE svg PUBLIC "-//W3C//DTD SVG 1.1//EN" "http://www.w3.org/Graphics/SVG/1.1/DTD/svg11.dtd">
<svg version="1.1" id="Layer_1" xmlns="http://www.w3.org/2000/svg" xmlns:xlink="http://www.w3.org/1999/xlink" x="0px" y="0px"
	 width="24px" height="20px" viewBox="0 0 24 20" enable-background="new 0 0 24 20" xml:space="preserve">
<title>truck-icon</title>
<desc>Created with Sketch.</desc>
<g>
	<g>
		<path fill="#CF004E" d="M20.516,14.313c-0.077-0.211-0.31-0.318-0.52-0.24l-4.21,1.553c-0.21,0.078-0.317,0.311-0.239,0.521
			c0.061,0.163,0.215,0.265,0.38,0.265c0.046,0,0.094-0.009,0.14-0.024l4.21-1.555C20.486,14.755,20.593,14.522,20.516,14.313z"/>
	</g>
</g>
<g>
	<g>
		<path fill="#CF004E" d="M15.148,16.294c-0.077-0.21-0.31-0.317-0.52-0.24L14.45,16.12c-0.21,0.077-0.316,0.31-0.24,0.519
			c0.061,0.164,0.216,0.266,0.381,0.266c0.047,0,0.094-0.008,0.14-0.025l0.179-0.065C15.119,16.735,15.226,16.503,15.148,16.294z"/>
	</g>
</g>
<g>
	<g>
		<path fill="#CF004E" d="M20.516,12.663c-0.077-0.209-0.31-0.317-0.52-0.239l-3.327,1.228c-0.209,0.077-0.317,0.31-0.239,0.521
			c0.061,0.163,0.215,0.264,0.379,0.264c0.047,0,0.095-0.008,0.141-0.024l3.327-1.229C20.486,13.106,20.593,12.873,20.516,12.663z"
			/>
	</g>
</g>
<g>
	<g>
		<path fill="#CF004E" d="M20.516,11.031c-0.077-0.21-0.31-0.316-0.52-0.239l-3.327,1.227c-0.209,0.078-0.317,0.311-0.239,0.521
			c0.061,0.163,0.215,0.264,0.379,0.264c0.047,0,0.095-0.007,0.141-0.023l3.327-1.229C20.486,11.474,20.593,11.24,20.516,11.031z"/>
	</g>
</g>
<g>
	<g>
		<path fill="#CF004E" d="M21.896,3.625l-9.755-3.6c-0.09-0.033-0.19-0.033-0.28,0l-9.755,3.6v0
			C2.072,3.637,2.042,3.652,2.013,3.672C1.904,3.748,1.84,3.872,1.84,4.004v11.582c0,0.17,0.105,0.32,0.265,0.379l9.755,3.6
			c0.045,0.018,0.093,0.025,0.14,0.025s0.095-0.009,0.14-0.025h0l9.755-3.6c0.159-0.059,0.265-0.209,0.265-0.379V4.004
			C22.16,3.835,22.055,3.683,21.896,3.625z M11.595,18.604l-8.946-3.301V4.585l1.822,0.672v4.904c0,0.17,0.106,0.322,0.265,0.38
			l4.372,1.612c0.046,0.018,0.093,0.026,0.14,0.026c0.082,0,0.163-0.025,0.232-0.073c0.108-0.075,0.173-0.2,0.173-0.333V7.169
			l1.942,0.717L11.595,18.604L11.595,18.604z M8.843,6.87v4.324L5.281,9.88V5.556L8.843,6.87z M6.045,4.972L9.247,3.79l3.203,1.182
			L9.247,6.154L6.045,4.972z M12,7.172l-1.587-0.585l3.347-1.235c0.159-0.059,0.265-0.21,0.265-0.38
			c0-0.169-0.105-0.321-0.265-0.379L9.388,2.979c-0.091-0.033-0.19-0.033-0.281,0L4.871,4.542L3.414,4.004L12,0.836l8.586,3.168
			L12,7.172z M21.351,15.304l-8.946,3.301V7.886l8.946-3.301V15.304z"/>
	</g>
</g>
</svg>
