<?xml version="1.0" encoding="utf-8"?>
<!-- Generator: Adobe Illustrator 16.0.0, SVG Export Plug-In . SVG Version: 6.00 Build 0)  -->
<!DOCTYPE svg PUBLIC "-//W3C//DTD SVG 1.1//EN" "http://www.w3.org/Graphics/SVG/1.1/DTD/svg11.dtd">
<svg version="1.1" id="Layer_1" xmlns="http://www.w3.org/2000/svg" xmlns:xlink="http://www.w3.org/1999/xlink" x="0px" y="0px"
	 width="24px" height="20px" viewBox="0 0 24 20" enable-background="new 0 0 24 20" xml:space="preserve">
<title>truck-icon</title>
<desc>Created with Sketch.</desc>
<g>
	<g>
		<path fill="#CF004E" d="M23.997,10.626c0.009-0.009,0.016-0.015,0.016-0.015l-3.525-4.025c0,0-0.009,0.004-0.023,0.009
			c-0.088-0.104-0.218-0.171-0.365-0.171h-3.035V3.577c0-0.262-0.212-0.475-0.475-0.475H1.661c-0.262,0-0.475,0.212-0.475,0.475
			v10.429H0.771c-0.262,0-0.475,0.212-0.475,0.475s0.213,0.475,0.475,0.475h0.415v0.555c0,0.263,0.212,0.475,0.475,0.475h0.936
			c0.217,0.963,1.079,1.685,2.106,1.685c1.027,0,1.889-0.722,2.106-1.685h11.137l0,0c0.217,0.963,1.079,1.685,2.106,1.685
			s1.89-0.722,2.106-1.685h1.497c0.263,0,0.475-0.212,0.475-0.475v-4.555C24.13,10.827,24.079,10.712,23.997,10.626z M4.703,16.721
			c-0.667,0-1.21-0.544-1.21-1.211s0.542-1.21,1.21-1.21c0.667,0,1.21,0.543,1.21,1.21S5.37,16.721,4.703,16.721z M16.114,15.035
			H6.809c-0.217-0.963-1.079-1.685-2.106-1.685c-1.027,0-1.889,0.722-2.106,1.685h-0.46v-2.093h13.979V15.035L16.114,15.035z
			 M16.114,11.993H2.136V4.052h13.979V11.993L16.114,11.993z M20.573,8.126l2.062,2.354h-2.062V8.126z M20.052,16.721
			c-0.667,0-1.21-0.544-1.21-1.211s0.543-1.21,1.21-1.21s1.21,0.543,1.21,1.21S20.719,16.721,20.052,16.721z M23.181,15.035h-1.022
			c-0.217-0.963-1.079-1.685-2.106-1.685s-1.89,0.722-2.106,1.685h-0.882V7.374h2.561v3.582c0,0.262,0.212,0.475,0.475,0.475h3.082
			V15.035L23.181,15.035z"/>
	</g>
</g>
<g>
	<g>
		<path fill="#CF004E" d="M14.967,11.527h-3.988c-0.262,0-0.475,0.213-0.475,0.475c0,0.263,0.213,0.475,0.475,0.475h3.988
			c0.262,0,0.476-0.212,0.476-0.475C15.442,11.74,15.229,11.527,14.967,11.527z"/>
	</g>
</g>
<g>
	<g>
		<path fill="#CF004E" d="M9.507,11.527H9.223c-0.263,0-0.475,0.213-0.475,0.475c0,0.263,0.212,0.475,0.475,0.475h0.284
			c0.263,0,0.475-0.212,0.475-0.475C9.982,11.74,9.77,11.527,9.507,11.527z"/>
	</g>
</g>
</svg>
