<?xml version="1.0" encoding="utf-8"?>
<!-- Generator: Adobe Illustrator 16.0.0, SVG Export Plug-In . SVG Version: 6.00 Build 0)  -->
<!DOCTYPE svg PUBLIC "-//W3C//DTD SVG 1.1//EN" "http://www.w3.org/Graphics/SVG/1.1/DTD/svg11.dtd">
<svg version="1.1" id="Layer_1" xmlns="http://www.w3.org/2000/svg" xmlns:xlink="http://www.w3.org/1999/xlink" x="0px" y="0px"
	 width="24px" height="20px" viewBox="0 0 24 20" enable-background="new 0 0 24 20" xml:space="preserve">
<title>truck-icon</title>
<desc>Created with Sketch.</desc>
<g>
	<path fill="#CF004E" d="M12,0.158c-5.427,0-9.843,4.416-9.843,9.842c0,5.428,4.416,9.842,9.843,9.842
		c5.427,0,9.843-4.414,9.843-9.842C21.843,4.573,17.427,0.158,12,0.158z M12,19.186c-5.066,0-9.187-4.121-9.187-9.186
		S6.934,0.814,12,0.814c5.065,0,9.188,4.121,9.188,9.186S17.065,19.186,12,19.186z"/>
	<path fill="#CF004E" d="M12,2.126c-0.181,0-0.328,0.146-0.328,0.328V10H6.75c-0.181,0-0.328,0.147-0.328,0.329
		c0,0.181,0.147,0.328,0.328,0.328H12c0.181,0,0.328-0.146,0.328-0.328V2.454C12.328,2.273,12.181,2.126,12,2.126z"/>
</g>
</svg>
